<?xml version="1.0" encoding="UTF-8" standalone="no"?>
<!-- Created with Inkscape (http://www.inkscape.org/) -->

<svg
   xmlns:dc="http://purl.org/dc/elements/1.1/"
   xmlns:cc="http://creativecommons.org/ns#"
   xmlns:rdf="http://www.w3.org/1999/02/22-rdf-syntax-ns#"
   xmlns:svg="http://www.w3.org/2000/svg"
   xmlns="http://www.w3.org/2000/svg"
   xmlns:xlink="http://www.w3.org/1999/xlink"
   xmlns:sodipodi="http://sodipodi.sourceforge.net/DTD/sodipodi-0.dtd"
   xmlns:inkscape="http://www.inkscape.org/namespaces/inkscape"
   width="100"
   height="100"
   id="svg2"
   version="1.1"
   inkscape:version="0.48.5 r10040"
   sodipodi:docname="punch_card.svg">
  <defs
     id="defs4">
    <linearGradient
       id="linearGradient4379">
      <stop
         style="stop-color:#000000;stop-opacity:1;"
         offset="0"
         id="stop4381" />
      <stop
         style="stop-color:#000000;stop-opacity:0.38392857;"
         offset="1"
         id="stop4383" />
    </linearGradient>
    <linearGradient
       inkscape:collect="always"
       xlink:href="#linearGradient4379"
       id="linearGradient4392"
       gradientUnits="userSpaceOnUse"
       x1="212.08984"
       y1="522.76257"
       x2="488.82812"
       y2="522.76257" />
  </defs>
  <sodipodi:namedview
     id="base"
     pagecolor="#ffffff"
     bordercolor="#666666"
     borderopacity="1.0"
     inkscape:pageopacity="0.0"
     inkscape:pageshadow="2"
     inkscape:zoom="4.6812866"
     inkscape:cx="52.048689"
     inkscape:cy="51.397471"
     inkscape:document-units="px"
     inkscape:current-layer="layer1"
     showgrid="true"
     inkscape:snap-grids="true"
     inkscape:snap-page="false"
     showguides="true"
     inkscape:guide-bbox="true"
     inkscape:window-width="1243"
     inkscape:window-height="661"
     inkscape:window-x="1925"
     inkscape:window-y="184"
     inkscape:window-maximized="0">
    <inkscape:grid
       type="xygrid"
       id="grid3764"
       empspacing="5"
       visible="true"
       enabled="true"
       snapvisiblegridlinesonly="true" />
  </sodipodi:namedview>
  <metadata
     id="metadata7">
    <rdf:RDF>
      <cc:Work
         rdf:about="">
        <dc:format>image/svg+xml</dc:format>
        <dc:type
           rdf:resource="http://purl.org/dc/dcmitype/StillImage" />
        <dc:title></dc:title>
      </cc:Work>
    </rdf:RDF>
  </metadata>
  <g
     inkscape:label="Layer 1"
     inkscape:groupmode="layer"
     id="layer1"
     transform="translate(0,-952.36217)">
    <g
       id="g4387"
       transform="matrix(0.17105387,-0.09729008,0.09625425,0.17289465,-82.889039,938.50642)">
      <path
         inkscape:connector-curvature="0"
         id="path4355"
         d="m 212.80675,719.32542 c -8.09786,-1.91821 -16.46208,-8.78611 -20.85017,-17.12015 l -2.42076,-4.59762 0,-86.30106 0,-86.30106 2.32205,-4.72805 c 3.00576,-6.12019 9.12186,-12.18248 15.51229,-15.37582 l 5.08196,-2.53948 217.54788,0 217.54788,0 14.74303,14.76111 14.74304,14.76111 -0.22627,82.43439 -0.22627,82.43439 -2.29695,4.90104 c -2.9347,6.26183 -9.61076,12.93789 -15.87259,15.87259 l -4.90104,2.29695 -218.74328,0.13192 c -125.71506,0.0758 -220.11165,-0.19223 -221.9608,-0.63026 z m 5.35368,-18.29991 0,-10.68082 -5.1268,0 -5.12679,0 0,10.68082 0,10.68083 5.12679,0 5.1268,0 0,-10.68083 z m 20.50718,0 0,-10.68082 -5.55403,0 -5.55402,0 0,10.68082 0,10.68083 5.55402,0 5.55403,0 0,-10.68083 z m 19.65272,-0.0408 0,-10.7216 -5.34041,0.25439 -5.34041,0.25437 -0.23992,10.46721 -0.23992,10.46721 5.58033,0 5.58033,0 0,-10.7216 0,2e-5 z m 20.50718,0.0408 0,-10.68082 -5.55403,0 -5.55402,0 0,10.68082 0,10.68083 5.55402,0 5.55403,0 0,-10.68083 z m 19.65272,0 0,-10.68082 -5.55403,0 -5.55403,0 0,10.68082 0,10.68083 5.55403,0 5.55403,0 0,-10.68083 z m 19.65272,0 0,-10.68082 -5.1268,0 -5.1268,0 0,10.68082 0,10.68083 5.1268,0 5.1268,0 0,-10.68083 z m 20.50718,0 0,-10.68082 -5.55403,0 -5.55403,0 0,10.68082 0,10.68083 5.55403,0 5.55403,0 0,-10.68083 z m 19.65272,0 0,-10.68082 -5.1268,0 -5.1268,0 0,10.68082 0,10.68083 5.1268,0 5.1268,0 0,-10.68083 z m 20.50718,0 0,-10.68082 -5.55403,0 -5.55403,0 0,10.68082 0,10.68083 5.55403,0 5.55403,0 0,-10.68083 z m 19.65272,0 0,-10.68082 -5.55403,0 -5.55403,0 0,10.68082 0,10.68083 5.55403,0 5.55403,0 0,-10.68083 z m 19.65271,0 0,-10.68082 -5.12679,0 -5.1268,0 0,10.68082 0,10.68083 5.1268,0 5.12679,0 0,-10.68083 z m 20.50719,0 0,-10.68082 -5.55403,0 -5.55403,0 0,10.68082 0,10.68083 5.55403,0 5.55403,0 0,-10.68083 z m 19.65271,0 0,-10.68082 -5.12679,0 -5.1268,0 0,10.68082 0,10.68083 5.1268,0 5.12679,0 0,-10.68083 z m 20.50719,0 0,-10.68082 -5.55403,0 -5.55403,0 0,10.68082 0,10.68083 5.55403,0 5.55403,0 0,-10.68083 z m 19.65271,0 0,-10.68082 -5.55403,0 -5.55403,0 0,10.68082 0,10.68083 5.55403,0 5.55403,0 0,-10.68083 z m 19.65272,0 0,-10.68082 -5.1268,0 -5.12679,0 0,10.68082 0,10.68083 5.12679,0 5.1268,0 0,-10.68083 z m 20.50718,0 0,-10.68082 -5.55403,0 -5.55403,0 0,10.68082 0,10.68083 5.55403,0 5.55403,0 0,-10.68083 z m 19.65272,0 0,-10.68082 -5.1268,0 -5.12679,0 0,10.68082 0,10.68083 5.12679,0 5.1268,0 0,-10.68083 z m 20.50718,0 0,-10.68082 -5.55403,0 -5.55403,0 0,10.68082 0,10.68083 5.55403,0 5.55403,0 0,-10.68083 z m 19.65272,0 0,-10.68082 -5.55403,0 -5.55403,0 0,10.68082 0,10.68083 5.55403,0 5.55403,0 0,-10.68083 z m 19.65272,0 0,-10.68082 -5.1268,0 -5.1268,0 0,10.68082 0,10.68083 5.1268,0 5.1268,0 0,-10.68083 z m 20.50718,0 0,-10.68082 -5.55403,0 -5.55403,0 0,10.68082 0,10.68083 5.55403,0 5.55403,0 0,-10.68083 z m 19.65272,0 0,-10.68082 -5.1268,0 -5.1268,0 0,10.68082 0,10.68083 5.1268,0 5.1268,0 0,-10.68083 z m -440.04997,-29.9063 0,-10.68083 -5.1268,0 -5.12679,0 0,10.68083 0,10.68082 5.12679,0 5.1268,0 0,-10.68082 z m 20.50718,0 0,-10.68083 -5.55403,0 -5.55402,0 0,10.68083 0,10.68082 5.55402,0 5.55403,0 0,-10.68082 z m 19.65272,0 0,-10.68083 -5.55403,0 -5.55403,0 0,10.11118 c 0,5.56115 0.25634,10.36752 0.56965,10.68082 0.3133,0.31331 2.81261,0.56965 5.55403,0.56965 l 4.98438,0 0,-10.68082 z m 20.50718,0 0,-10.68083 -5.55403,0 -5.55402,0 0,10.68083 0,10.68082 5.55402,0 5.55403,0 0,-10.68082 z m 19.65272,0 0,-10.68083 -5.55403,0 -5.55403,0 0,10.68083 0,10.68082 5.55403,0 5.55403,0 0,-10.68082 z m 19.65272,0 0,-10.68083 -5.1268,0 -5.1268,0 0,10.68083 0,10.68082 5.1268,0 5.1268,0 0,-10.68082 z m 20.50718,0 0,-10.68083 -5.55403,0 -5.55403,0 0,10.68083 0,10.68082 5.55403,0 5.55403,0 0,-10.68082 z m 19.65272,0 0,-10.68083 -5.1268,0 -5.1268,0 0,10.68083 0,10.68082 5.1268,0 5.1268,0 0,-10.68082 z m 20.50718,0 0,-10.68083 -5.55403,0 -5.55403,0 0,10.68083 0,10.68082 5.55403,0 5.55403,0 0,-10.68082 z m 19.65272,0 0,-10.68083 -5.55403,0 -5.55403,0 0,10.68083 0,10.68082 5.55403,0 5.55403,0 0,-10.68082 z m 19.65271,0 0,-10.68083 -5.12679,0 -5.1268,0 0,10.68083 0,10.68082 5.1268,0 5.12679,0 0,-10.68082 z m 20.50719,0 0,-10.68083 -5.55403,0 -5.55403,0 0,10.68083 0,10.68082 5.55403,0 5.55403,0 0,-10.68082 z m 19.65271,0 0,-10.68083 -5.12679,0 -5.1268,0 0,10.68083 0,10.68082 5.1268,0 5.12679,0 0,-10.68082 z m 20.50719,0 0,-10.68083 -5.55403,0 -5.55403,0 0,10.68083 0,10.68082 5.55403,0 5.55403,0 0,-10.68082 z m 19.65271,0 0,-10.68083 -5.55403,0 -5.55403,0 0,10.68083 0,10.68082 5.55403,0 5.55403,0 0,-10.68082 z m 19.65272,0 0,-10.68083 -5.1268,0 -5.12679,0 0,10.68083 0,10.68082 5.12679,0 5.1268,0 0,-10.68082 z m 20.50718,0 0,-10.68083 -5.55403,0 -5.55403,0 0,10.68083 0,10.68082 5.55403,0 5.55403,0 0,-10.68082 z m 19.65272,0 0,-10.68083 -5.1268,0 -5.12679,0 0,10.68083 0,10.68082 5.12679,0 5.1268,0 0,-10.68082 z m 20.50718,0 0,-10.68083 -5.55403,0 -5.55403,0 0,10.68083 0,10.68082 5.55403,0 5.55403,0 0,-10.68082 z m 19.65272,0 0,-10.68083 -5.55403,0 -5.55403,0 0,10.68083 0,10.68082 5.55403,0 5.55403,0 0,-10.68082 z m 19.65272,0 0,-10.68083 -5.1268,0 -5.1268,0 0,10.68083 0,10.68082 5.1268,0 5.1268,0 0,-10.68082 z m 20.50718,0 0,-10.68083 -5.55403,0 -5.55403,0 0,10.68083 0,10.68082 5.55403,0 5.55403,0 0,-10.68082 z m 19.65272,0 0,-10.68083 -5.1268,0 -5.1268,0 0,10.68083 0,10.68082 5.1268,0 5.1268,0 0,-10.68082 z m -440.04997,-29.90631 0,-10.68083 -5.1268,0 -5.12679,0 0,10.68083 0,10.68082 5.12679,0 5.1268,0 0,-10.68082 z m 20.50718,0 0,-10.68083 -5.55403,0 -5.55402,0 0,10.68083 0,10.68082 5.55402,0 5.55403,0 0,-10.68082 z m 19.65272,0 0,-10.68083 -5.55403,0 -5.55403,0 0,10.11118 c 0,5.56115 0.25634,10.36753 0.56965,10.68082 0.3133,0.31331 2.81261,0.56965 5.55403,0.56965 l 4.98438,0 0,-10.68082 z m 20.31987,-0.21362 0.23991,-10.46721 -5.58033,0 -5.58032,0 0,10.7216 0,10.72159 5.34041,-0.25438 5.34041,-0.25439 0.23992,-10.46721 z m 19.84003,0.21362 0,-10.68083 -5.55403,0 -5.55403,0 0,10.68083 0,10.68082 5.55403,0 5.55403,0 0,-10.68082 z m 19.65272,0 0,-10.68083 -5.1268,0 -5.1268,0 0,10.68083 0,10.68082 5.1268,0 5.1268,0 0,-10.68082 z m 20.50718,0 0,-10.68083 -5.55403,0 -5.55403,0 0,10.68083 0,10.68082 5.55403,0 5.55403,0 0,-10.68082 z m 19.65272,0 0,-10.68083 -5.1268,0 -5.1268,0 0,10.68083 0,10.68082 5.1268,0 5.1268,0 0,-10.68082 z m 20.50718,0 0,-10.68083 -5.55403,0 -5.55403,0 0,10.68083 0,10.68082 5.55403,0 5.55403,0 0,-10.68082 z m 19.65272,0 0,-10.68083 -5.55403,0 -5.55403,0 0,10.68083 0,10.68082 5.55403,0 5.55403,0 0,-10.68082 z m 19.65271,0 0,-10.68083 -5.12679,0 -5.1268,0 0,10.68083 0,10.68082 5.1268,0 5.12679,0 0,-10.68082 z m 20.50719,0 0,-10.68083 -5.55403,0 -5.55403,0 0,10.68083 0,10.68082 5.55403,0 5.55403,0 0,-10.68082 z m 19.65271,0 0,-10.68083 -5.12679,0 -5.1268,0 0,10.68083 0,10.68082 5.1268,0 5.12679,0 0,-10.68082 z m 20.50719,0 0,-10.68083 -5.55403,0 -5.55403,0 0,10.68083 0,10.68082 5.55403,0 5.55403,0 0,-10.68082 z m 19.65271,0 0,-10.68083 -5.55403,0 -5.55403,0 0,10.68083 0,10.68082 5.55403,0 5.55403,0 0,-10.68082 z m 19.65272,0 0,-10.68083 -5.1268,0 -5.12679,0 0,10.68083 0,10.68082 5.12679,0 5.1268,0 0,-10.68082 z m 20.50718,0 0,-10.68083 -5.55403,0 -5.55403,0 0,10.68083 0,10.68082 5.55403,0 5.55403,0 0,-10.68082 z m 19.65272,0 0,-10.68083 -5.1268,0 -5.12679,0 0,10.68083 0,10.68082 5.12679,0 5.1268,0 0,-10.68082 z m 20.50718,0 0,-10.68083 -5.55403,0 -5.55403,0 0,10.68083 0,10.68082 5.55403,0 5.55403,0 0,-10.68082 z m 19.65272,0 0,-10.68083 -5.55403,0 -5.55403,0 0,10.68083 0,10.68082 5.55403,0 5.55403,0 0,-10.68082 z m 19.65272,0 0,-10.68083 -5.1268,0 -5.1268,0 0,10.68083 0,10.68082 5.1268,0 5.1268,0 0,-10.68082 z m 20.50718,0 0,-10.68083 -5.55403,0 -5.55403,0 0,10.68083 0,10.68082 5.55403,0 5.55403,0 0,-10.68082 z m 19.65272,0 0,-10.68083 -5.1268,0 -5.1268,0 0,10.68083 0,10.68082 5.1268,0 5.1268,0 0,-10.68082 z m -440.04997,-30.33354 0,-10.2536 -5.1268,0 -5.12679,0 0,10.2536 0,10.25359 5.12679,0 5.1268,0 0,-10.25359 z m 20.50718,0 0,-10.2536 -5.55403,0 -5.55402,0 0,10.2536 0,10.25359 5.55402,0 5.55403,0 0,-10.25359 z m 19.65272,0 0,-10.2536 -5.55403,0 -5.55403,0 0,10.2536 0,10.25359 5.55403,0 5.55403,0 0,-10.25359 z m 20.50718,0 0,-10.2536 -5.55403,0 -5.55402,0 0,10.2536 0,10.25359 5.55402,0 5.55403,0 0,-10.25359 z m 19.65272,0 0,-10.2536 -5.55403,0 -5.55403,0 0,10.2536 0,10.25359 5.55403,0 5.55403,0 0,-10.25359 z m 19.65272,0 0,-10.2536 -5.1268,0 -5.1268,0 0,10.2536 0,10.25359 5.1268,0 5.1268,0 0,-10.25359 z m 20.50718,0 0,-10.2536 -5.55403,0 -5.55403,0 0,10.2536 0,10.25359 5.55403,0 5.55403,0 0,-10.25359 z m 19.65272,0 0,-10.2536 -5.1268,0 -5.1268,0 0,10.2536 0,10.25359 5.1268,0 5.1268,0 0,-10.25359 z m 20.50718,0 0,-10.2536 -5.55403,0 -5.55403,0 0,10.2536 0,10.25359 5.55403,0 5.55403,0 0,-10.25359 z m 19.65272,0 0,-10.2536 -5.55403,0 -5.55403,0 0,10.2536 0,10.25359 5.55403,0 5.55403,0 0,-10.25359 z m 19.65271,0 0,-10.2536 -5.12679,0 -5.1268,0 0,10.2536 0,10.25359 5.1268,0 5.12679,0 0,-10.25359 z m 20.50719,0 0,-10.2536 -5.55403,0 -5.55403,0 0,10.2536 0,10.25359 5.55403,0 5.55403,0 0,-10.25359 z m 19.65271,0 0,-10.2536 -5.12679,0 -5.1268,0 0,10.2536 0,10.25359 5.1268,0 5.12679,0 0,-10.25359 z m 20.50719,0 0,-10.2536 -5.55403,0 -5.55403,0 0,10.2536 0,10.25359 5.55403,0 5.55403,0 0,-10.25359 z m 19.65271,0 0,-10.2536 -5.55403,0 -5.55403,0 0,10.2536 0,10.25359 5.55403,0 5.55403,0 0,-10.25359 z m 19.65272,0 0,-10.2536 -5.1268,0 -5.12679,0 0,10.2536 0,10.25359 5.12679,0 5.1268,0 0,-10.25359 z m 20.50718,0 0,-10.2536 -5.55403,0 -5.55403,0 0,10.2536 0,10.25359 5.55403,0 5.55403,0 0,-10.25359 z m 19.65272,0 0,-10.2536 -5.1268,0 -5.12679,0 0,10.2536 0,10.25359 5.12679,0 5.1268,0 0,-10.25359 z m 20.50718,0 0,-10.2536 -5.55403,0 -5.55403,0 0,10.2536 0,10.25359 5.55403,0 5.55403,0 0,-10.25359 z m 19.65272,0 0,-10.2536 -5.55403,0 -5.55403,0 0,10.2536 0,10.25359 5.55403,0 5.55403,0 0,-10.25359 z m 19.65272,0 0,-10.2536 -5.1268,0 -5.1268,0 0,10.2536 0,10.25359 5.1268,0 5.1268,0 0,-10.25359 z m 20.50718,0 0,-10.2536 -5.55403,0 -5.55403,0 0,10.2536 0,10.25359 5.55403,0 5.55403,0 0,-10.25359 z m 19.65272,0 0,-10.2536 -5.1268,0 -5.1268,0 0,10.2536 0,10.25359 5.1268,0 5.1268,0 0,-10.25359 z m -440.04997,-29.90631 0,-10.25359 -5.1268,0 -5.12679,0 0,10.25359 0,10.25359 5.12679,0 5.1268,0 0,-10.25359 z m 20.50718,0 0,-10.25359 -5.55403,0 -5.55402,0 0,10.25359 0,10.25359 5.55402,0 5.55403,0 0,-10.25359 z m 19.65272,0 0,-10.25359 -5.55403,0 -5.55403,0 0,10.25359 0,10.25359 5.55403,0 5.55403,0 0,-10.25359 z m 20.50718,0 0,-10.25359 -5.55403,0 -5.55402,0 0,10.25359 0,10.25359 5.55402,0 5.55403,0 0,-10.25359 z m 19.65272,0 0,-10.25359 -5.55403,0 -5.55403,0 0,10.25359 0,10.25359 5.55403,0 5.55403,0 0,-10.25359 z m 19.65272,0 0,-10.25359 -5.1268,0 -5.1268,0 0,10.25359 0,10.25359 5.1268,0 5.1268,0 0,-10.25359 z m 20.50718,0 0,-10.25359 -5.55403,0 -5.55403,0 0,10.25359 0,10.25359 5.55403,0 5.55403,0 0,-10.25359 z m 19.65272,0 0,-10.25359 -5.1268,0 -5.1268,0 0,10.25359 0,10.25359 5.1268,0 5.1268,0 0,-10.25359 z m 20.50718,0 0,-10.25359 -5.55403,0 -5.55403,0 0,10.25359 0,10.25359 5.55403,0 5.55403,0 0,-10.25359 z m 19.65272,0 0,-10.25359 -5.55403,0 -5.55403,0 0,10.25359 0,10.25359 5.55403,0 5.55403,0 0,-10.25359 z m 19.65271,0 0,-10.25359 -5.12679,0 -5.1268,0 0,10.25359 0,10.25359 5.1268,0 5.12679,0 0,-10.25359 z m 20.50719,0 0,-10.25359 -5.55403,0 -5.55403,0 0,10.25359 0,10.25359 5.55403,0 5.55403,0 0,-10.25359 z m 19.65271,0 0,-10.25359 -5.12679,0 -5.1268,0 0,10.25359 0,10.25359 5.1268,0 5.12679,0 0,-10.25359 z m 20.50719,0 0,-10.25359 -5.55403,0 -5.55403,0 0,10.25359 0,10.25359 5.55403,0 5.55403,0 0,-10.25359 z m 19.65271,0 0,-10.25359 -5.55403,0 -5.55403,0 0,10.25359 0,10.25359 5.55403,0 5.55403,0 0,-10.25359 z m 19.65272,0 0,-10.25359 -5.1268,0 -5.12679,0 0,10.25359 0,10.25359 5.12679,0 5.1268,0 0,-10.25359 z m 20.50718,0 0,-10.25359 -5.55403,0 -5.55403,0 0,10.25359 0,10.25359 5.55403,0 5.55403,0 0,-10.25359 z m 19.65272,0 0,-10.25359 -5.1268,0 -5.12679,0 0,10.25359 0,10.25359 5.12679,0 5.1268,0 0,-10.25359 z m 20.50718,0 0,-10.25359 -5.55403,0 -5.55403,0 0,10.25359 0,10.25359 5.55403,0 5.55403,0 0,-10.25359 z m 19.65272,0 0,-10.25359 -5.55403,0 -5.55403,0 0,10.25359 0,10.25359 5.55403,0 5.55403,0 0,-10.25359 z m 19.65272,0 0,-10.25359 -5.1268,0 -5.1268,0 0,10.25359 0,10.25359 5.1268,0 5.1268,0 0,-10.25359 z m 20.50718,0 0,-10.25359 -5.55403,0 -5.55403,0 0,10.25359 0,10.25359 5.55403,0 5.55403,0 0,-10.25359 z m 19.65272,0 0,-10.25359 -5.1268,0 -5.1268,0 0,10.25359 0,10.25359 5.1268,0 5.1268,0 0,-10.25359 z m -440.04997,-29.90631 0,-10.25359 -5.1268,0 -5.12679,0 0,10.25359 0,10.25359 5.12679,0 5.1268,0 0,-10.25359 z m 20.50718,0 0,-10.25359 -5.55403,0 -5.55402,0 0,10.25359 0,10.25359 5.55402,0 5.55403,0 0,-10.25359 z m 19.65272,0 0,-10.25359 -5.55403,0 -5.55403,0 0,10.25359 0,10.25359 5.55403,0 5.55403,0 0,-10.25359 z m 20.50718,0 0,-10.25359 -5.55403,0 -5.55402,0 0,10.25359 0,10.25359 5.55402,0 5.55403,0 0,-10.25359 z m 19.65272,0 0,-10.25359 -5.55403,0 -5.55403,0 0,10.25359 0,10.25359 5.55403,0 5.55403,0 0,-10.25359 z m 19.65272,0 0,-10.25359 -5.1268,0 -5.1268,0 0,10.25359 0,10.25359 5.1268,0 5.1268,0 0,-10.25359 z m 20.50718,0 0,-10.25359 -5.55403,0 -5.55403,0 0,10.25359 0,10.25359 5.55403,0 5.55403,0 0,-10.25359 z m 19.65272,0 0,-10.25359 -5.1268,0 -5.1268,0 0,10.25359 0,10.25359 5.1268,0 5.1268,0 0,-10.25359 z m 20.50718,0 0,-10.25359 -5.55403,0 -5.55403,0 0,10.25359 0,10.25359 5.55403,0 5.55403,0 0,-10.25359 z m 19.65272,0 0,-10.25359 -5.55403,0 -5.55403,0 0,10.25359 0,10.25359 5.55403,0 5.55403,0 0,-10.25359 z m 19.65271,0 0,-10.25359 -5.12679,0 -5.1268,0 0,10.25359 0,10.25359 5.1268,0 5.12679,0 0,-10.25359 z m 20.50719,0 0,-10.25359 -5.55403,0 -5.55403,0 0,10.25359 0,10.25359 5.55403,0 5.55403,0 0,-10.25359 z m 19.65271,0 0,-10.25359 -5.12679,0 -5.1268,0 0,10.25359 0,10.25359 5.1268,0 5.12679,0 0,-10.25359 z m 20.50719,0 0,-10.25359 -5.55403,0 -5.55403,0 0,10.25359 0,10.25359 5.55403,0 5.55403,0 0,-10.25359 z m 19.65271,0 0,-10.25359 -5.55403,0 -5.55403,0 0,10.25359 0,10.25359 5.55403,0 5.55403,0 0,-10.25359 z m 19.65272,0 0,-10.25359 -5.1268,0 -5.12679,0 0,10.25359 0,10.25359 5.12679,0 5.1268,0 0,-10.25359 z m 20.50718,0 0,-10.25359 -5.55403,0 -5.55403,0 0,10.25359 0,10.25359 5.55403,0 5.55403,0 0,-10.25359 z m 19.65272,0 0,-10.25359 -5.1268,0 -5.12679,0 0,10.25359 0,10.25359 5.12679,0 5.1268,0 0,-10.25359 z m 20.50718,0 0,-10.25359 -5.55403,0 -5.55403,0 0,10.25359 0,10.25359 5.55403,0 5.55403,0 0,-10.25359 z m 19.65272,0 0,-10.25359 -5.55403,0 -5.55403,0 0,10.25359 0,10.25359 5.55403,0 5.55403,0 0,-10.25359 z m 19.65272,0 0,-10.25359 -5.1268,0 -5.1268,0 0,10.25359 0,10.25359 5.1268,0 5.1268,0 0,-10.25359 z m 20.50718,0 0,-10.25359 -5.55403,0 -5.55403,0 0,10.25359 0,10.25359 5.55403,0 5.55403,0 0,-10.25359 z m 19.65272,0 0,-10.25359 -5.1268,0 -5.1268,0 0,10.25359 0,10.25359 5.1268,0 5.1268,0 0,-10.25359 z"
         style="fill:#ccb28f;fill-opacity:1" />
      <text
         sodipodi:linespacing="125%"
         id="text4359"
         y="532.36218"
         x="210"
         style="font-size:40px;font-style:normal;font-weight:normal;line-height:125%;letter-spacing:0px;word-spacing:0px;fill:url(#linearGradient4392);fill-opacity:1;stroke:none;font-family:Sans"
         xml:space="preserve"><tspan
           style="font-style:normal;font-variant:normal;font-weight:normal;font-stretch:normal;fill:url(#linearGradient4392);fill-opacity:1;font-family:Monospace;-inkscape-font-specification:Monospace"
           y="532.36218"
           x="210"
           id="tspan4361"
           sodipodi:role="line">HELLO WORLD;</tspan></text>
    </g>
  </g>
</svg>
